<svg width="28" height="28" viewBox="0 0 28 28" fill="none" xmlns="http://www.w3.org/2000/svg">
<g clip-path="url(#clip0_11_71)">
<path d="M7.3675 7.20532C7.07584 6.46099 7.0875 5.61049 7.217 4.83232C8.10856 5.09946 8.94588 5.52207 9.69034 6.08066C10.017 6.33032 10.4452 6.41082 10.8442 6.29066C11.868 5.98433 12.9313 5.83024 14 5.83332C15.1212 5.83332 16.1863 5.99666 17.1535 6.28949C17.5525 6.41082 17.9807 6.32916 18.3062 6.07949C19.0503 5.52102 19.8872 5.09842 20.7783 4.83116C20.9078 5.60932 20.9183 6.45982 20.629 7.20299C20.454 7.65099 20.5415 8.16666 20.8717 8.53299C21.7163 9.46982 22.1667 10.5467 22.1667 11.6667C22.1667 14.133 19.8683 16.5515 16.177 17.2877C15.253 17.472 14.8925 18.6352 15.5995 19.3013C16.0533 19.7283 16.3333 20.3303 16.3333 21V24.5C16.3333 24.8094 16.4563 25.1062 16.675 25.3249C16.8938 25.5437 17.1906 25.6667 17.5 25.6667C17.8094 25.6667 18.1062 25.5437 18.325 25.3249C18.5438 25.1062 18.6667 24.8094 18.6667 24.5V21C18.6667 20.335 18.5267 19.7027 18.277 19.1298C21.7968 17.9083 24.5 15.1585 24.5 11.6667C24.5 10.0952 23.9353 8.65082 22.9985 7.44099C23.2435 6.48432 23.2213 5.52066 23.128 4.78099C23.0452 4.11832 22.9297 3.25032 22.463 2.73232C21.7688 1.96349 20.6197 2.41616 19.803 2.69499C18.9269 2.99143 18.0935 3.4013 17.3238 3.91416C16.2377 3.63697 15.1209 3.49782 14 3.49999C12.8403 3.49999 11.7215 3.64582 10.6738 3.91532C9.90421 3.40245 9.07074 2.99258 8.19467 2.69616C7.378 2.41616 6.22767 1.96349 5.5335 2.73232C5.0575 3.25966 4.95834 4.05882 4.87317 4.73782L4.86734 4.78216C4.774 5.52299 4.753 6.48782 4.998 7.44566C4.06467 8.65432 3.5 10.0963 3.5 11.6667C3.5 15.1573 6.20317 17.9083 9.723 19.1298C9.46823 19.7123 9.33561 20.3409 9.33334 20.9767L9.13734 21.0163C8.30084 21.1318 7.76534 21.028 7.40134 20.874C6.51467 20.4983 6.05734 19.5522 5.49967 18.8288C5.152 18.3797 4.64567 17.8185 3.86867 17.5595C3.72327 17.5111 3.56977 17.4918 3.41691 17.5027C3.26406 17.5136 3.11485 17.5545 2.9778 17.6231C2.70103 17.7616 2.49061 18.0044 2.39284 18.298C2.29506 18.5916 2.31794 18.9121 2.45643 19.1889C2.59493 19.4656 2.8377 19.676 3.13134 19.7738C3.78234 19.9908 4.23267 21.1062 4.64567 21.6008C5.08084 22.1235 5.6595 22.6695 6.489 23.0218C7.28467 23.3602 8.21917 23.4803 9.33334 23.3438V24.5C9.33334 24.8094 9.45625 25.1062 9.67505 25.3249C9.89384 25.5437 10.1906 25.6667 10.5 25.6667C10.8094 25.6667 11.1062 25.5437 11.325 25.3249C11.5438 25.1062 11.6667 24.8094 11.6667 24.5V21C11.6667 20.3303 11.9467 19.7283 12.4005 19.3013C13.1087 18.634 12.747 17.472 11.823 17.2877C8.1305 16.5515 5.83334 14.133 5.83334 11.6667C5.83334 10.549 6.2825 9.47216 7.126 8.53532C7.45617 8.16899 7.5425 7.65332 7.3675 7.20532Z" fill="white"/>
</g>
<defs>
<clipPath id="clip0_11_71">
<rect width="28" height="28" fill="white"/>
</clipPath>
</defs>
</svg>
